{
	"asset":{
		"generator":"Khronos glTF Blender I/O v3.5.30",
		"version":"2.0"
	},
	"extensionsUsed":[
		"KHR_materials_specular",
		"KHR_materials_ior"
	],
	"scene":0,
	"scenes":[
		{
			"name":"Scene",
			"nodes":[
				23
			]
		}
	],
	"nodes":[
		{
			"name":"head",
			"rotation":[
				-0.013739575631916523,
				-2.3839328378016944e-07,
				1.21958411251899e-12,
				0.9999056458473206
			],
			"translation":[
				1.9388934902053734e-12,
				0.06268088519573212,
				1.2164616536303186e-11
			]
		},
		{
			"children":[
				0
			],
			"name":"neck",
			"rotation":[
				0.02035832218825817,
				-9.369677776704943e-12,
				4.852116042286525e-09,
				0.999792754650116
			],
			"scale":[
				1,
				0.9999998807907104,
				1
			],
			"translation":[
				-1.18760556944153e-12,
				0.19134947657585144,
				7.46274864127372e-09
			]
		},
		{
			"name":"hand_L",
			"rotation":[
				-0.15434058010578156,
				-0.04382563754916191,
				-0.16624724864959717,
				0.9729440808296204
			],
			"translation":[
				2.0736479200422764e-10,
				0.13928468525409698,
				-5.528769975171599e-08
			]
		},
		{
			"children":[
				2
			],
			"name":"forearm_L",
			"rotation":[
				-0.08602157980203629,
				0.006675375159829855,
				-0.0792691633105278,
				0.9931123852729797
			],
			"scale":[
				0.9999998211860657,
				1,
				1
			],
			"translation":[
				-5.587935447692871e-09,
				0.07610473781824112,
				2.9708758120250423e-08
			]
		},
		{
			"children":[
				3
			],
			"name":"upper_arm_L",
			"rotation":[
				0.02477377839386463,
				-0.014092999510467052,
				-0.02835432067513466,
				0.9991915822029114
			],
			"scale":[
				0.9999998807907104,
				0.9999998807907104,
				0.9999998807907104
			],
			"translation":[
				1.1175870895385742e-08,
				0.1509813368320465,
				1.6298145055770874e-09
			]
		},
		{
			"children":[
				4
			],
			"name":"shoulder_L",
			"rotation":[
				-0.5057739615440369,
				-0.48715466260910034,
				-0.3942245543003082,
				0.5928406715393066
			],
			"scale":[
				1,
				1,
				0.9999998807907104
			],
			"translation":[
				0.11684457957744598,
				0.16550908982753754,
				-0.02411889098584652
			]
		},
		{
			"name":"hand_R",
			"rotation":[
				-0.15434055030345917,
				0.04382562264800072,
				0.16624723374843597,
				0.9729440808296204
			],
			"scale":[
				0.9999999403953552,
				0.9999999403953552,
				1
			],
			"translation":[
				-1.3460521586239338e-10,
				0.1392846256494522,
				-5.1706564363485086e-08
			]
		},
		{
			"children":[
				6
			],
			"name":"forearm_R",
			"rotation":[
				-0.08602160215377808,
				-0.006675374694168568,
				0.0792691707611084,
				0.9931123852729797
			],
			"scale":[
				1,
				1,
				1.000000238418579
			],
			"translation":[
				3.958120942115784e-09,
				0.07610469311475754,
				7.2914758675324265e-09
			]
		},
		{
			"children":[
				7
			],
			"name":"upper_arm_R",
			"rotation":[
				0.02477380633354187,
				0.014092995785176754,
				0.02835429459810257,
				0.9991915822029114
			],
			"scale":[
				1,
				1,
				0.9999999403953552
			],
			"translation":[
				5.587935447692871e-09,
				0.1509813517332077,
				5.311449058353901e-09
			]
		},
		{
			"children":[
				8
			],
			"name":"shoulder_R",
			"rotation":[
				-0.5057740807533264,
				0.4871545732021332,
				0.39422449469566345,
				0.5928407311439514
			],
			"scale":[
				1.000000238418579,
				1.000000238418579,
				1
			],
			"translation":[
				-0.11694672703742981,
				0.16550908982753754,
				-0.024118950590491295
			]
		},
		{
			"children":[
				1,
				5,
				9
			],
			"name":"upper_chest",
			"rotation":[
				0.0006335288053378463,
				-0.00012040123692713678,
				7.626278630823435e-08,
				0.9999998211860657
			],
			"scale":[
				1.0000001192092896,
				1.0000001192092896,
				1.0000001192092896
			],
			"translation":[
				-5.684341886080802e-14,
				0.17900721728801727,
				3.4645921687115333e-09
			]
		},
		{
			"children":[
				10
			],
			"name":"chest",
			"rotation":[
				-0.0006831408245489001,
				-0.00010083337110700086,
				0.002674639690667391,
				0.9999961853027344
			],
			"scale":[
				1,
				0.9999999403953552,
				1
			],
			"translation":[
				-9.640643838793039e-11,
				0.20039871335029602,
				7.731841833447106e-10
			]
		},
		{
			"children":[
				11
			],
			"name":"spine",
			"rotation":[
				-0.0007143119000829756,
				0.0003482359170448035,
				-0.005563771817833185,
				0.9999842047691345
			],
			"scale":[
				1.0000001192092896,
				1,
				1
			],
			"translation":[
				1.6370904631912708e-11,
				0.18555472791194916,
				1.2770726698363433e-09
			]
		},
		{
			"name":"foot_L",
			"rotation":[
				0.4917069673538208,
				0.4892835021018982,
				-0.512887716293335,
				0.505739152431488
			],
			"scale":[
				1.000000238418579,
				1,
				1.0000001192092896
			],
			"translation":[
				-7.916241884231567e-09,
				0.10347282886505127,
				1.8102582544088364e-08
			]
		},
		{
			"children":[
				13
			],
			"name":"shin_L",
			"rotation":[
				-0.10538455843925476,
				0.015013983473181725,
				0.03441092371940613,
				0.9937225580215454
			],
			"scale":[
				1,
				0.9999998807907104,
				1
			],
			"translation":[
				-4.656612873077393e-10,
				0.08322364091873169,
				-9.66247171163559e-09
			]
		},
		{
			"children":[
				14
			],
			"name":"thigh_L",
			"rotation":[
				-0.7117007970809937,
				-0.09407655894756317,
				-0.6917802095413208,
				0.07792142778635025
			],
			"scale":[
				0.9999967217445374,
				0.9999998211860657,
				1
			],
			"translation":[
				0.21450726687908173,
				0.12774889171123505,
				-0.0020177639089524746
			]
		},
		{
			"name":"foot_R",
			"rotation":[
				0.491706907749176,
				-0.48928362131118774,
				0.5128876566886902,
				0.505739152431488
			],
			"scale":[
				1.000000238418579,
				1,
				1.0000001192092896
			],
			"translation":[
				4.656612873077393e-10,
				0.10347282886505127,
				1.3606040738523006e-08
			]
		},
		{
			"children":[
				16
			],
			"name":"shin_R",
			"rotation":[
				-0.10538479685783386,
				-0.015013989061117172,
				-0.03441092371940613,
				0.9937225580215454
			],
			"translation":[
				-3.026798367500305e-09,
				0.08322365581989288,
				3.1548552215099335e-08
			]
		},
		{
			"children":[
				17
			],
			"name":"thigh_R",
			"rotation":[
				-0.710967481136322,
				0.09820720553398132,
				0.6915013790130615,
				0.08189298212528229
			],
			"scale":[
				0.9999973177909851,
				0.9999999403953552,
				1
			],
			"translation":[
				-0.21311992406845093,
				0.13021962344646454,
				-0.0019078128971159458
			]
		},
		{
			"children":[
				12,
				15,
				18
			],
			"name":"hip",
			"rotation":[
				-0.0015433625085279346,
				-0.00012421802966855466,
				0.002889052266255021,
				0.9999946355819702
			],
			"scale":[
				0.9999999403953552,
				1,
				0.9999999403953552
			],
			"translation":[
				-1.4271592796433197e-08,
				0.11010593175888062,
				0.05986476317048073
			]
		},
		{
			"children":[
				19
			],
			"name":"root",
			"rotation":[
				0.004814308602362871,
				1.1920792530872859e-07,
				5.739086428313556e-10,
				0.9999884366989136
			],
			"translation":[
				5.107913239044137e-05,
				-0.002096235752105713,
				0.0004780020099133253
			]
		},
		{
			"mesh":0,
			"name":"Body",
			"skin":0
		},
		{
			"mesh":1,
			"name":"Thunder",
			"skin":0
		},
		{
			"children":[
				21,
				22,
				20
			],
			"name":"Armature"
		}
	],
	"materials":[
		{
			"doubleSided":true,
			"extensions":{
				"KHR_materials_specular":{
					"specularColorFactor":[
						0,
						0,
						0
					]
				},
				"KHR_materials_ior":{
					"ior":1.4500000476837158
				}
			},
			"name":"mt_elekibear",
			"pbrMetallicRoughness":{
				"baseColorTexture":{
					"index":0
				},
				"metallicFactor":0,
				"roughnessFactor":0.36772486567497253
			}
		}
	],
	"meshes":[
		{
			"extras":{
				"targetNames":[
					"ANGRY",
					"SORROW",
					"FUN",
					"SHOCK"
				]
			},
			"name":"Cube",
			"primitives":[
				{
					"attributes":{
						"POSITION":0,
						"TEXCOORD_0":1,
						"NORMAL":2,
						"JOINTS_0":3,
						"WEIGHTS_0":4
					},
					"indices":5,
					"material":0,
					"targets":[
						{
							"POSITION":6,
							"NORMAL":7
						},
						{
							"POSITION":8,
							"NORMAL":9
						},
						{
							"POSITION":10,
							"NORMAL":11
						},
						{
							"POSITION":12,
							"NORMAL":13
						}
					]
				}
			],
			"weights":[
				0,
				0,
				0,
				0
			]
		},
		{
			"extras":{
				"targetNames":[]
			},
			"name":"Cube.004",
			"primitives":[
				{
					"attributes":{
						"POSITION":15,
						"TEXCOORD_0":16,
						"NORMAL":17,
						"JOINTS_0":18,
						"WEIGHTS_0":19
					},
					"indices":20,
					"material":0
				}
			]
		}
	],
	"textures":[
		{
			"sampler":0,
			"source":0
		}
	],
	"images":[
		{
			"bufferView":6,
			"mimeType":"image/png",
			"name":"tex_elekibear"
		}
	],
	"skins":[
		{
			"inverseBindMatrices":14,
			"joints":[
				20,
				19,
				12,
				11,
				10,
				1,
				0,
				5,
				4,
				3,
				2,
				9,
				8,
				7,
				6,
				15,
				14,
				13,
				18,
				17,
				16
			],
			"name":"Armature"
		}
	],
	"accessors":[
		{
			"bufferView":0,
			"componentType":5126,
			"count":3342,
			"max":[
				0.6709549427032471,
				1.401236891746521,
				0.38062259554862976
			],
			"min":[
				-0.6709549427032471,
				0.0008716534939594567,
				-0.4566222131252289
			],
			"type":"VEC3"
		},
		{
			"bufferView":1,
			"componentType":5126,
			"count":3342,
			"type":"VEC2"
		},
		{
			"bufferView":2,
			"componentType":5126,
			"count":3342,
			"type":"VEC3"
		},
		{
			"bufferView":3,
			"componentType":5121,
			"count":3342,
			"type":"VEC4"
		},
		{
			"bufferView":4,
			"componentType":5126,
			"count":3342,
			"type":"VEC4"
		},
		{
			"bufferView":5,
			"componentType":5123,
			"count":16023,
			"type":"SCALAR"
		},
		{
			"bufferView":7,
			"componentType":5126,
			"count":3342,
			"max":[
				0,
				0.02098524570465088,
				0
			],
			"min":[
				0,
				0,
				0
			],
			"type":"VEC3"
		},
		{
			"bufferView":8,
			"componentType":5126,
			"count":3342,
			"type":"VEC3"
		},
		{
			"bufferView":9,
			"componentType":5126,
			"count":3342,
			"max":[
				0,
				0,
				0
			],
			"min":[
				0,
				0,
				0
			],
			"type":"VEC3"
		},
		{
			"bufferView":10,
			"componentType":5126,
			"count":3342,
			"type":"VEC3"
		},
		{
			"bufferView":11,
			"componentType":5126,
			"count":3342,
			"max":[
				0.0118328258395195,
				0.0339815616607666,
				0.01904621720314026
			],
			"min":[
				-0.011832810938358307,
				-0.0339810848236084,
				-0.0029614269733428955
			],
			"type":"VEC3"
		},
		{
			"bufferView":12,
			"componentType":5126,
			"count":3342,
			"type":"VEC3"
		},
		{
			"bufferView":13,
			"componentType":5126,
			"count":3342,
			"max":[
				0.019221261143684387,
				0.00206834077835083,
				0
			],
			"min":[
				-0.019074536859989166,
				-0.026508748531341553,
				0
			],
			"type":"VEC3"
		},
		{
			"bufferView":14,
			"componentType":5126,
			"count":3342,
			"type":"VEC3"
		},
		{
			"bufferView":15,
			"componentType":5126,
			"count":21,
			"type":"MAT4"
		},
		{
			"bufferView":16,
			"componentType":5126,
			"count":13,
			"max":[
				0.0643121749162674,
				1.397767424583435,
				0.2878357470035553
			],
			"min":[
				-0.04971900209784508,
				1.1675262451171875,
				0.17267169058322906
			],
			"type":"VEC3"
		},
		{
			"bufferView":17,
			"componentType":5126,
			"count":13,
			"type":"VEC2"
		},
		{
			"bufferView":18,
			"componentType":5126,
			"count":13,
			"type":"VEC3"
		},
		{
			"bufferView":19,
			"componentType":5121,
			"count":13,
			"type":"VEC4"
		},
		{
			"bufferView":20,
			"componentType":5126,
			"count":13,
			"type":"VEC4"
		},
		{
			"bufferView":21,
			"componentType":5123,
			"count":36,
			"type":"SCALAR"
		}
	],
	"bufferViews":[
		{
			"buffer":0,
			"byteLength":40104,
			"byteOffset":0,
			"target":34962
		},
		{
			"buffer":0,
			"byteLength":26736,
			"byteOffset":40104,
			"target":34962
		},
		{
			"buffer":0,
			"byteLength":40104,
			"byteOffset":66840,
			"target":34962
		},
		{
			"buffer":0,
			"byteLength":13368,
			"byteOffset":106944,
			"target":34962
		},
		{
			"buffer":0,
			"byteLength":53472,
			"byteOffset":120312,
			"target":34962
		},
		{
			"buffer":0,
			"byteLength":32046,
			"byteOffset":173784,
			"target":34963
		},
		{
			"buffer":0,
			"byteLength":44124,
			"byteOffset":205832
		},
		{
			"buffer":0,
			"byteLength":40104,
			"byteOffset":249956,
			"target":34962
		},
		{
			"buffer":0,
			"byteLength":40104,
			"byteOffset":290060,
			"target":34962
		},
		{
			"buffer":0,
			"byteLength":40104,
			"byteOffset":330164,
			"target":34962
		},
		{
			"buffer":0,
			"byteLength":40104,
			"byteOffset":370268,
			"target":34962
		},
		{
			"buffer":0,
			"byteLength":40104,
			"byteOffset":410372,
			"target":34962
		},
		{
			"buffer":0,
			"byteLength":40104,
			"byteOffset":450476,
			"target":34962
		},
		{
			"buffer":0,
			"byteLength":40104,
			"byteOffset":490580,
			"target":34962
		},
		{
			"buffer":0,
			"byteLength":40104,
			"byteOffset":530684,
			"target":34962
		},
		{
			"buffer":0,
			"byteLength":1344,
			"byteOffset":570788
		},
		{
			"buffer":0,
			"byteLength":156,
			"byteOffset":572132,
			"target":34962
		},
		{
			"buffer":0,
			"byteLength":104,
			"byteOffset":572288,
			"target":34962
		},
		{
			"buffer":0,
			"byteLength":156,
			"byteOffset":572392,
			"target":34962
		},
		{
			"buffer":0,
			"byteLength":52,
			"byteOffset":572548,
			"target":34962
		},
		{
			"buffer":0,
			"byteLength":208,
			"byteOffset":572600,
			"target":34962
		},
		{
			"buffer":0,
			"byteLength":72,
			"byteOffset":572808,
			"target":34963
		}
	],
	"samplers":[
		{
			"magFilter":9729,
			"minFilter":9987
		}
	],
	"buffers":[
		{
			"byteLength":572880,
			"uri":"data:application/octet-stream;base64,"
		}
	]
}
